<?xml version="1.0" encoding="UTF-8" standalone="no"?>
<!DOCTYPE svg PUBLIC "-//W3C//DTD SVG 1.1//EN"
 "http://www.w3.org/Graphics/SVG/1.1/DTD/svg11.dtd">
<!-- Generated by graphviz version 5.0.0 (20220707.1540)
 -->
<!-- Title: dependencies Pages: 1 -->
<svg width="344pt" height="247pt"
 viewBox="0.00 0.00 344.00 246.80" xmlns="http://www.w3.org/2000/svg" xmlns:xlink="http://www.w3.org/1999/xlink">
<g id="graph0" class="graph" transform="scale(1 1) rotate(0) translate(4 242.8)">
<title>dependencies</title>
<polygon fill="white" stroke="transparent" points="-4,4 -4,-242.8 340,-242.8 340,4 -4,4"/>
<text text-anchor="middle" x="168" y="-8.2" font-family="sans-serif" font-size="14.00">dependencies</text>
<g id="clust1" class="cluster">
<title>cluster_SpinnerModule</title>
<polygon fill="none" stroke="black" stroke-dasharray="1,5" points="8,-32.8 8,-230.8 328,-230.8 328,-32.8 8,-32.8"/>
</g>
<g id="clust2" class="cluster">
<title>cluster_SpinnerModule_declarations</title>
<polygon fill="none" stroke="black" points="180,-40.8 180,-92.8 320,-92.8 320,-40.8 180,-40.8"/>
</g>
<g id="clust5" class="cluster">
<title>cluster_SpinnerModule_exports</title>
<polygon fill="none" stroke="black" points="99,-170.8 99,-222.8 243,-222.8 243,-170.8 99,-170.8"/>
</g>
<g id="clust7" class="cluster">
<title>cluster_SpinnerModule_providers</title>
<polygon fill="none" stroke="black" points="16,-40.8 16,-92.8 172,-92.8 172,-40.8 16,-40.8"/>
</g>
<!-- SpinnerComponent -->
<g id="node1" class="node">
<title>SpinnerComponent</title>
<polygon fill="#ffffb3" stroke="black" points="312.38,-84.8 187.62,-84.8 187.62,-48.8 312.38,-48.8 312.38,-84.8"/>
<text text-anchor="middle" x="250" y="-62.6" font-family="Times,serif" font-size="14.00">SpinnerComponent</text>
</g>
<!-- SpinnerModule -->
<g id="node2" class="node">
<title>SpinnerModule</title>
<polygon fill="#8dd3c7" stroke="black" points="222.6,-149.8 219.6,-153.8 198.6,-153.8 195.6,-149.8 119.4,-149.8 119.4,-113.8 222.6,-113.8 222.6,-149.8"/>
<text text-anchor="middle" x="171" y="-127.6" font-family="Times,serif" font-size="14.00">SpinnerModule</text>
</g>
<!-- SpinnerComponent&#45;&gt;SpinnerModule -->
<g id="edge1" class="edge">
<title>SpinnerComponent&#45;&gt;SpinnerModule</title>
<path fill="none" stroke="black" d="M205.06,-84.91C205.06,-84.91 205.06,-103.79 205.06,-103.79"/>
<polygon fill="black" stroke="black" points="201.56,-103.79 205.06,-113.79 208.56,-103.79 201.56,-103.79"/>
</g>
<!-- SpinnerComponent  -->
<g id="node3" class="node">
<title>SpinnerComponent </title>
<polygon fill="#fb8072" stroke="black" points="235.38,-214.8 106.62,-214.8 106.62,-178.8 235.38,-178.8 235.38,-214.8"/>
<text text-anchor="middle" x="171" y="-192.6" font-family="Times,serif" font-size="14.00">SpinnerComponent </text>
</g>
<!-- SpinnerModule&#45;&gt;SpinnerComponent  -->
<g id="edge2" class="edge">
<title>SpinnerModule&#45;&gt;SpinnerComponent </title>
<path fill="none" stroke="black" stroke-dasharray="5,2" d="M171,-149.91C171,-149.91 171,-168.79 171,-168.79"/>
<polygon fill="black" stroke="black" points="167.5,-168.79 171,-178.79 174.5,-168.79 167.5,-168.79"/>
</g>
<!-- SpinnerService -->
<g id="node4" class="node">
<title>SpinnerService</title>
<ellipse fill="#fdb462" stroke="black" cx="94" cy="-66.8" rx="70.07" ry="18"/>
<text text-anchor="middle" x="94" y="-62.6" font-family="Times,serif" font-size="14.00">SpinnerService</text>
</g>
<!-- SpinnerService&#45;&gt;SpinnerModule -->
<g id="edge3" class="edge">
<title>SpinnerService&#45;&gt;SpinnerModule</title>
<path fill="none" stroke="black" d="M141.74,-80.27C141.74,-80.27 141.74,-103.66 141.74,-103.66"/>
<polygon fill="black" stroke="black" points="138.24,-103.66 141.74,-113.66 145.24,-103.66 138.24,-103.66"/>
</g>
</g>
</svg>
