<svg width="63" height="63" viewBox="0 0 63 63" fill="none" xmlns="http://www.w3.org/2000/svg">
<rect x="-0.000732422" width="63" height="63" rx="14" fill="#FE5758"/>
<path d="M40.6179 32.7207L40.6179 32.7207C40.616 31.9268 39.9709 31.2847 39.177 31.2866C38.383 31.2885 37.741 31.9336 37.7429 32.7275L37.7429 32.7275L37.7512 36.1563L24.5686 22.9737C24.0072 22.4123 23.097 22.4123 22.5357 22.9737C21.9743 23.5351 21.9743 24.4452 22.5357 25.0066L35.7182 38.1892L32.2896 38.1809L32.2895 38.1809C31.4956 38.179 30.8505 38.8211 30.8486 39.615C30.8467 40.4091 31.489 41.054 32.2827 41.056L32.2839 40.556L32.2827 41.056L39.1767 41.0726L39.1937 41.0727H39.1949C39.197 41.0727 39.199 41.0726 39.201 41.0726C39.9924 41.0705 40.6323 40.4281 40.6346 39.6394C40.6346 39.6362 40.6346 39.6328 40.6346 39.629L40.6179 32.7207Z" fill="white" stroke="white"/>
</svg>
