<svg width="63" height="63" viewBox="0 0 63 63" fill="none" xmlns="http://www.w3.org/2000/svg">
<rect width="63" height="63" rx="14" fill="#71B945"/>
<path d="M22.1318 30.9043L22.1318 30.9043L22.1151 23.9961C22.1151 23.9922 22.1151 23.9887 22.1152 23.9854M22.1318 30.9043L22.6152 23.9909L22.1152 23.99C22.1152 23.9769 22.1157 23.9667 22.116 23.9623L22.1161 23.9608C22.1159 23.9641 22.1154 23.973 22.1152 23.9843C22.1152 23.9847 22.1152 23.985 22.1152 23.9854M22.1318 30.9043C22.1338 31.6982 22.7788 32.3403 23.5728 32.3384C24.3667 32.3365 25.0088 31.6914 25.0069 30.8975L25.0069 30.8975L24.9986 27.4687M22.1318 30.9043L24.9986 27.4687M22.1152 23.9854C22.1176 23.1968 22.7574 22.5545 23.5488 22.5524C23.5504 22.5524 23.5522 22.5523 23.554 22.5523L23.5561 22.5523L23.5732 22.5524L30.4671 22.569L30.4658 23.069L30.4671 22.569C31.2608 22.571 31.903 23.2159 31.9011 24.01C31.8992 24.8039 31.2541 25.446 30.4602 25.4441L30.4602 25.4441L27.0315 25.4358L40.2141 38.6184C40.7755 39.1798 40.7755 40.0899 40.2141 40.6513C39.6527 41.2127 38.7426 41.2127 38.1812 40.6513L24.9986 27.4687M22.1152 23.9854C22.1152 23.9874 22.1152 23.9894 22.1152 23.9914L24.9986 27.4687M23.5541 22.5524C23.5547 22.5524 23.5554 22.5524 23.5561 22.5524L23.5541 22.5524Z" fill="white" stroke="white"/>
</svg>
