<?xml version="1.0" encoding="UTF-8" standalone="no"?>
<!DOCTYPE svg PUBLIC "-//W3C//DTD SVG 1.1//EN"
 "http://www.w3.org/Graphics/SVG/1.1/DTD/svg11.dtd">
<!-- Generated by graphviz version 5.0.0 (20220707.1540)
 -->
<!-- Title: dependencies Pages: 1 -->
<svg width="2835pt" height="174pt"
 viewBox="0.00 0.00 2835.00 173.80" xmlns="http://www.w3.org/2000/svg" xmlns:xlink="http://www.w3.org/1999/xlink">
<g id="graph0" class="graph" transform="scale(1 1) rotate(0) translate(4 169.8)">
<title>dependencies</title>
<polygon fill="white" stroke="transparent" points="-4,4 -4,-169.8 2831,-169.8 2831,4 -4,4"/>
<text text-anchor="middle" x="1413.5" y="-8.2" font-family="sans-serif" font-size="14.00">dependencies</text>
<g id="clust1" class="cluster">
<title>cluster_PagesModule</title>
<polygon fill="none" stroke="black" stroke-dasharray="1,5" points="8,-32.8 8,-157.8 2819,-157.8 2819,-32.8 8,-32.8"/>
</g>
<g id="clust2" class="cluster">
<title>cluster_PagesModule_declarations</title>
<polygon fill="none" stroke="black" points="457,-40.8 457,-92.8 2811,-92.8 2811,-40.8 457,-40.8"/>
</g>
<g id="clust19" class="cluster">
<title>cluster_PagesModule_providers</title>
<polygon fill="none" stroke="black" points="299,-40.8 299,-92.8 449,-92.8 449,-40.8 299,-40.8"/>
</g>
<g id="clust16" class="cluster">
<title>cluster_PagesModule_imports</title>
<polygon fill="none" stroke="black" points="16,-40.8 16,-92.8 291,-92.8 291,-40.8 16,-40.8"/>
</g>
<!-- CreateProjectComponent -->
<g id="node1" class="node">
<title>CreateProjectComponent</title>
<polygon fill="#ffffb3" stroke="black" points="2802.52,-84.8 2645.48,-84.8 2645.48,-48.8 2802.52,-48.8 2802.52,-84.8"/>
<text text-anchor="middle" x="2724" y="-62.6" font-family="Times,serif" font-size="14.00">CreateProjectComponent</text>
</g>
<!-- PagesModule -->
<g id="node14" class="node">
<title>PagesModule</title>
<polygon fill="#8dd3c7" stroke="black" points="1394.21,-149.8 1391.21,-153.8 1370.21,-153.8 1367.21,-149.8 1301.79,-149.8 1301.79,-113.8 1394.21,-113.8 1394.21,-149.8"/>
<text text-anchor="middle" x="1348" y="-127.6" font-family="Times,serif" font-size="14.00">PagesModule</text>
</g>
<!-- CreateProjectComponent&#45;&gt;PagesModule -->
<g id="edge1" class="edge">
<title>CreateProjectComponent&#45;&gt;PagesModule</title>
<path fill="none" stroke="black" d="M2724,-85.12C2724,-108.46 2724,-145.8 2724,-145.8 2724,-145.8 1404.18,-145.8 1404.18,-145.8"/>
<polygon fill="black" stroke="black" points="1404.18,-142.3 1394.18,-145.8 1404.18,-149.3 1404.18,-142.3"/>
</g>
<!-- ForgotPasswordPageComponent -->
<g id="node2" class="node">
<title>ForgotPasswordPageComponent</title>
<polygon fill="#ffffb3" stroke="black" points="2626.55,-84.8 2427.45,-84.8 2427.45,-48.8 2626.55,-48.8 2626.55,-84.8"/>
<text text-anchor="middle" x="2527" y="-62.6" font-family="Times,serif" font-size="14.00">ForgotPasswordPageComponent</text>
</g>
<!-- ForgotPasswordPageComponent&#45;&gt;PagesModule -->
<g id="edge2" class="edge">
<title>ForgotPasswordPageComponent&#45;&gt;PagesModule</title>
<path fill="none" stroke="black" d="M2527,-85.09C2527,-107.01 2527,-140.8 2527,-140.8 2527,-140.8 1404.22,-140.8 1404.22,-140.8"/>
<polygon fill="black" stroke="black" points="1404.22,-137.3 1394.22,-140.8 1404.22,-144.3 1404.22,-137.3"/>
</g>
<!-- FundedProjectsPageComponent -->
<g id="node3" class="node">
<title>FundedProjectsPageComponent</title>
<polygon fill="#ffffb3" stroke="black" points="2408.65,-84.8 2213.35,-84.8 2213.35,-48.8 2408.65,-48.8 2408.65,-84.8"/>
<text text-anchor="middle" x="2311" y="-62.6" font-family="Times,serif" font-size="14.00">FundedProjectsPageComponent</text>
</g>
<!-- FundedProjectsPageComponent&#45;&gt;PagesModule -->
<g id="edge3" class="edge">
<title>FundedProjectsPageComponent&#45;&gt;PagesModule</title>
<path fill="none" stroke="black" d="M2311,-84.83C2311,-105.57 2311,-136.8 2311,-136.8 2311,-136.8 1404.12,-136.8 1404.12,-136.8"/>
<polygon fill="black" stroke="black" points="1404.12,-133.3 1394.12,-136.8 1404.12,-140.3 1404.12,-133.3"/>
</g>
<!-- ImageUploadComponent -->
<g id="node4" class="node">
<title>ImageUploadComponent</title>
<polygon fill="#ffffb3" stroke="black" points="2194.53,-84.8 2037.47,-84.8 2037.47,-48.8 2194.53,-48.8 2194.53,-84.8"/>
<text text-anchor="middle" x="2116" y="-62.6" font-family="Times,serif" font-size="14.00">ImageUploadComponent</text>
</g>
<!-- ImageUploadComponent&#45;&gt;PagesModule -->
<g id="edge4" class="edge">
<title>ImageUploadComponent&#45;&gt;PagesModule</title>
<path fill="none" stroke="black" d="M2116,-84.91C2116,-104.14 2116,-131.8 2116,-131.8 2116,-131.8 1404.31,-131.8 1404.31,-131.8"/>
<polygon fill="black" stroke="black" points="1404.31,-128.3 1394.31,-131.8 1404.31,-135.3 1404.31,-128.3"/>
</g>
<!-- LoginComponent -->
<g id="node5" class="node">
<title>LoginComponent</title>
<polygon fill="#ffffb3" stroke="black" points="2019.27,-84.8 1904.73,-84.8 1904.73,-48.8 2019.27,-48.8 2019.27,-84.8"/>
<text text-anchor="middle" x="1962" y="-62.6" font-family="Times,serif" font-size="14.00">LoginComponent</text>
</g>
<!-- LoginComponent&#45;&gt;PagesModule -->
<g id="edge5" class="edge">
<title>LoginComponent&#45;&gt;PagesModule</title>
<path fill="none" stroke="black" d="M1962,-85.1C1962,-103.07 1962,-127.8 1962,-127.8 1962,-127.8 1404.15,-127.8 1404.15,-127.8"/>
<polygon fill="black" stroke="black" points="1404.15,-124.3 1394.15,-127.8 1404.15,-131.3 1404.15,-124.3"/>
</g>
<!-- MyProjectsPageComponent -->
<g id="node6" class="node">
<title>MyProjectsPageComponent</title>
<polygon fill="#ffffb3" stroke="black" points="1886.6,-84.8 1713.4,-84.8 1713.4,-48.8 1886.6,-48.8 1886.6,-84.8"/>
<text text-anchor="middle" x="1800" y="-62.6" font-family="Times,serif" font-size="14.00">MyProjectsPageComponent</text>
</g>
<!-- MyProjectsPageComponent&#45;&gt;PagesModule -->
<g id="edge6" class="edge">
<title>MyProjectsPageComponent&#45;&gt;PagesModule</title>
<path fill="none" stroke="black" d="M1800,-84.83C1800,-101.2 1800,-122.8 1800,-122.8 1800,-122.8 1404.25,-122.8 1404.25,-122.8"/>
<polygon fill="black" stroke="black" points="1404.25,-119.3 1394.25,-122.8 1404.25,-126.3 1404.25,-119.3"/>
</g>
<!-- MyTransactionPageComponent -->
<g id="node7" class="node">
<title>MyTransactionPageComponent</title>
<polygon fill="#ffffb3" stroke="black" points="1695.08,-84.8 1500.92,-84.8 1500.92,-48.8 1695.08,-48.8 1695.08,-84.8"/>
<text text-anchor="middle" x="1598" y="-62.6" font-family="Times,serif" font-size="14.00">MyTransactionPageComponent</text>
</g>
<!-- MyTransactionPageComponent&#45;&gt;PagesModule -->
<g id="edge7" class="edge">
<title>MyTransactionPageComponent&#45;&gt;PagesModule</title>
<path fill="none" stroke="black" d="M1598,-84.99C1598,-99.98 1598,-118.8 1598,-118.8 1598,-118.8 1404.15,-118.8 1404.15,-118.8"/>
<polygon fill="black" stroke="black" points="1404.15,-115.3 1394.15,-118.8 1404.15,-122.3 1404.15,-115.3"/>
</g>
<!-- PagesComponent -->
<g id="node8" class="node">
<title>PagesComponent</title>
<polygon fill="#ffffb3" stroke="black" points="1482.99,-84.8 1369.01,-84.8 1369.01,-48.8 1482.99,-48.8 1482.99,-84.8"/>
<text text-anchor="middle" x="1426" y="-62.6" font-family="Times,serif" font-size="14.00">PagesComponent</text>
</g>
<!-- PagesComponent&#45;&gt;PagesModule -->
<g id="edge8" class="edge">
<title>PagesComponent&#45;&gt;PagesModule</title>
<path fill="none" stroke="black" d="M1381.56,-84.91C1381.56,-84.91 1381.56,-103.79 1381.56,-103.79"/>
<polygon fill="black" stroke="black" points="1378.06,-103.79 1381.56,-113.79 1385.06,-103.79 1378.06,-103.79"/>
</g>
<!-- ProductDetailComponent -->
<g id="node9" class="node">
<title>ProductDetailComponent</title>
<polygon fill="#ffffb3" stroke="black" points="1350.59,-84.8 1191.41,-84.8 1191.41,-48.8 1350.59,-48.8 1350.59,-84.8"/>
<text text-anchor="middle" x="1271" y="-62.6" font-family="Times,serif" font-size="14.00">ProductDetailComponent</text>
</g>
<!-- ProductDetailComponent&#45;&gt;PagesModule -->
<g id="edge9" class="edge">
<title>ProductDetailComponent&#45;&gt;PagesModule</title>
<path fill="none" stroke="black" d="M1326.22,-84.91C1326.22,-84.91 1326.22,-103.79 1326.22,-103.79"/>
<polygon fill="black" stroke="black" points="1322.72,-103.79 1326.22,-113.79 1329.72,-103.79 1322.72,-103.79"/>
</g>
<!-- ProductListComponent -->
<g id="node10" class="node">
<title>ProductListComponent</title>
<polygon fill="#ffffb3" stroke="black" points="1173.16,-84.8 1026.84,-84.8 1026.84,-48.8 1173.16,-48.8 1173.16,-84.8"/>
<text text-anchor="middle" x="1100" y="-62.6" font-family="Times,serif" font-size="14.00">ProductListComponent</text>
</g>
<!-- ProductListComponent&#45;&gt;PagesModule -->
<g id="edge10" class="edge">
<title>ProductListComponent&#45;&gt;PagesModule</title>
<path fill="none" stroke="black" d="M1100,-84.99C1100,-99.98 1100,-118.8 1100,-118.8 1100,-118.8 1291.64,-118.8 1291.64,-118.8"/>
<polygon fill="black" stroke="black" points="1291.64,-122.3 1301.64,-118.8 1291.64,-115.3 1291.64,-122.3"/>
</g>
<!-- ProjectDetailPageComponent -->
<g id="node11" class="node">
<title>ProjectDetailPageComponent</title>
<polygon fill="#ffffb3" stroke="black" points="1008.41,-84.8 825.59,-84.8 825.59,-48.8 1008.41,-48.8 1008.41,-84.8"/>
<text text-anchor="middle" x="917" y="-62.6" font-family="Times,serif" font-size="14.00">ProjectDetailPageComponent</text>
</g>
<!-- ProjectDetailPageComponent&#45;&gt;PagesModule -->
<g id="edge11" class="edge">
<title>ProjectDetailPageComponent&#45;&gt;PagesModule</title>
<path fill="none" stroke="black" d="M917,-84.83C917,-101.2 917,-122.8 917,-122.8 917,-122.8 1291.88,-122.8 1291.88,-122.8"/>
<polygon fill="black" stroke="black" points="1291.88,-126.3 1301.88,-122.8 1291.88,-119.3 1291.88,-126.3"/>
</g>
<!-- RegisterPageComponent -->
<g id="node12" class="node">
<title>RegisterPageComponent</title>
<polygon fill="#ffffb3" stroke="black" points="807.7,-84.8 652.3,-84.8 652.3,-48.8 807.7,-48.8 807.7,-84.8"/>
<text text-anchor="middle" x="730" y="-62.6" font-family="Times,serif" font-size="14.00">RegisterPageComponent</text>
</g>
<!-- RegisterPageComponent&#45;&gt;PagesModule -->
<g id="edge12" class="edge">
<title>RegisterPageComponent&#45;&gt;PagesModule</title>
<path fill="none" stroke="black" d="M730,-85.1C730,-103.07 730,-127.8 730,-127.8 730,-127.8 1291.8,-127.8 1291.8,-127.8"/>
<polygon fill="black" stroke="black" points="1291.8,-131.3 1301.8,-127.8 1291.8,-124.3 1291.8,-131.3"/>
</g>
<!-- TransactionListComponent -->
<g id="node13" class="node">
<title>TransactionListComponent</title>
<polygon fill="#ffffb3" stroke="black" points="634.69,-84.8 465.31,-84.8 465.31,-48.8 634.69,-48.8 634.69,-84.8"/>
<text text-anchor="middle" x="550" y="-62.6" font-family="Times,serif" font-size="14.00">TransactionListComponent</text>
</g>
<!-- TransactionListComponent&#45;&gt;PagesModule -->
<g id="edge13" class="edge">
<title>TransactionListComponent&#45;&gt;PagesModule</title>
<path fill="none" stroke="black" d="M550,-84.91C550,-104.14 550,-131.8 550,-131.8 550,-131.8 1291.65,-131.8 1291.65,-131.8"/>
<polygon fill="black" stroke="black" points="1291.65,-135.3 1301.65,-131.8 1291.65,-128.3 1291.65,-135.3"/>
</g>
<!-- PagesRoutingModule -->
<g id="node15" class="node">
<title>PagesRoutingModule</title>
<polygon fill="#8dd3c7" stroke="black" points="282.83,-84.8 279.83,-88.8 258.83,-88.8 255.83,-84.8 145.17,-84.8 145.17,-48.8 282.83,-48.8 282.83,-84.8"/>
<text text-anchor="middle" x="214" y="-62.6" font-family="Times,serif" font-size="14.00">PagesRoutingModule</text>
</g>
<!-- PagesRoutingModule&#45;&gt;PagesModule -->
<g id="edge14" class="edge">
<title>PagesRoutingModule&#45;&gt;PagesModule</title>
<path fill="none" stroke="black" d="M214,-85.09C214,-107.01 214,-140.8 214,-140.8 214,-140.8 1291.79,-140.8 1291.79,-140.8"/>
<polygon fill="black" stroke="black" points="1291.79,-144.3 1301.79,-140.8 1291.79,-137.3 1291.79,-144.3"/>
</g>
<!-- SpinnerModule -->
<g id="node16" class="node">
<title>SpinnerModule</title>
<polygon fill="#8dd3c7" stroke="black" points="127.6,-84.8 124.6,-88.8 103.6,-88.8 100.6,-84.8 24.4,-84.8 24.4,-48.8 127.6,-48.8 127.6,-84.8"/>
<text text-anchor="middle" x="76" y="-62.6" font-family="Times,serif" font-size="14.00">SpinnerModule</text>
</g>
<!-- SpinnerModule&#45;&gt;PagesModule -->
<g id="edge15" class="edge">
<title>SpinnerModule&#45;&gt;PagesModule</title>
<path fill="none" stroke="black" d="M76,-85.12C76,-108.46 76,-145.8 76,-145.8 76,-145.8 1291.6,-145.8 1291.6,-145.8"/>
<polygon fill="black" stroke="black" points="1291.6,-149.3 1301.6,-145.8 1291.6,-142.3 1291.6,-149.3"/>
</g>
<!-- SharedService -->
<g id="node17" class="node">
<title>SharedService</title>
<ellipse fill="#fdb462" stroke="black" cx="374" cy="-66.8" rx="66.62" ry="18"/>
<text text-anchor="middle" x="374" y="-62.6" font-family="Times,serif" font-size="14.00">SharedService</text>
</g>
<!-- SharedService&#45;&gt;PagesModule -->
<g id="edge16" class="edge">
<title>SharedService&#45;&gt;PagesModule</title>
<path fill="none" stroke="black" d="M374,-84.83C374,-105.57 374,-136.8 374,-136.8 374,-136.8 1291.68,-136.8 1291.68,-136.8"/>
<polygon fill="black" stroke="black" points="1291.68,-140.3 1301.68,-136.8 1291.68,-133.3 1291.68,-140.3"/>
</g>
</g>
</svg>
