<?xml version="1.0" encoding="UTF-8" standalone="no"?>
<!DOCTYPE svg PUBLIC "-//W3C//DTD SVG 1.1//EN"
 "http://www.w3.org/Graphics/SVG/1.1/DTD/svg11.dtd">
<!-- Generated by graphviz version 5.0.0 (20220707.1540)
 -->
<!-- Title: dependencies Pages: 1 -->
<svg width="3006pt" height="174pt"
 viewBox="0.00 0.00 3006.00 173.80" xmlns="http://www.w3.org/2000/svg" xmlns:xlink="http://www.w3.org/1999/xlink">
<g id="graph0" class="graph" transform="scale(1 1) rotate(0) translate(4 169.8)">
<title>dependencies</title>
<polygon fill="white" stroke="transparent" points="-4,4 -4,-169.8 3002,-169.8 3002,4 -4,4"/>
<text text-anchor="middle" x="1499" y="-8.2" font-family="sans-serif" font-size="14.00">dependencies</text>
<g id="clust1" class="cluster">
<title>cluster_PagesModule</title>
<polygon fill="none" stroke="black" stroke-dasharray="1,5" points="8,-32.8 8,-157.8 2990,-157.8 2990,-32.8 8,-32.8"/>
</g>
<g id="clust20" class="cluster">
<title>cluster_PagesModule_providers</title>
<polygon fill="none" stroke="black" points="2832,-40.8 2832,-92.8 2982,-92.8 2982,-40.8 2832,-40.8"/>
</g>
<g id="clust2" class="cluster">
<title>cluster_PagesModule_declarations</title>
<polygon fill="none" stroke="black" points="299,-40.8 299,-92.8 2824,-92.8 2824,-40.8 299,-40.8"/>
</g>
<g id="clust17" class="cluster">
<title>cluster_PagesModule_imports</title>
<polygon fill="none" stroke="black" points="16,-40.8 16,-92.8 291,-92.8 291,-40.8 16,-40.8"/>
</g>
<!-- CreateProjectComponent -->
<g id="node1" class="node">
<title>CreateProjectComponent</title>
<polygon fill="#ffffb3" stroke="black" points="2815.52,-84.8 2658.48,-84.8 2658.48,-48.8 2815.52,-48.8 2815.52,-84.8"/>
<text text-anchor="middle" x="2737" y="-62.6" font-family="Times,serif" font-size="14.00">CreateProjectComponent</text>
</g>
<!-- PagesModule -->
<g id="node15" class="node">
<title>PagesModule</title>
<polygon fill="#8dd3c7" stroke="black" points="1485.21,-149.8 1482.21,-153.8 1461.21,-153.8 1458.21,-149.8 1392.79,-149.8 1392.79,-113.8 1485.21,-113.8 1485.21,-149.8"/>
<text text-anchor="middle" x="1439" y="-127.6" font-family="Times,serif" font-size="14.00">PagesModule</text>
</g>
<!-- CreateProjectComponent&#45;&gt;PagesModule -->
<g id="edge1" class="edge">
<title>CreateProjectComponent&#45;&gt;PagesModule</title>
<path fill="none" stroke="black" d="M2737,-84.96C2737,-107.15 2737,-141.8 2737,-141.8 2737,-141.8 1495.2,-141.8 1495.2,-141.8"/>
<polygon fill="black" stroke="black" points="1495.2,-138.3 1485.2,-141.8 1495.2,-145.3 1495.2,-138.3"/>
</g>
<!-- ForgotPasswordPageComponent -->
<g id="node2" class="node">
<title>ForgotPasswordPageComponent</title>
<polygon fill="#ffffb3" stroke="black" points="2639.55,-84.8 2440.45,-84.8 2440.45,-48.8 2639.55,-48.8 2639.55,-84.8"/>
<text text-anchor="middle" x="2540" y="-62.6" font-family="Times,serif" font-size="14.00">ForgotPasswordPageComponent</text>
</g>
<!-- ForgotPasswordPageComponent&#45;&gt;PagesModule -->
<g id="edge2" class="edge">
<title>ForgotPasswordPageComponent&#45;&gt;PagesModule</title>
<path fill="none" stroke="black" d="M2540,-85.08C2540,-106.12 2540,-137.8 2540,-137.8 2540,-137.8 1495.26,-137.8 1495.26,-137.8"/>
<polygon fill="black" stroke="black" points="1495.26,-134.3 1485.26,-137.8 1495.26,-141.3 1495.26,-134.3"/>
</g>
<!-- FundedProjectsPageComponent -->
<g id="node3" class="node">
<title>FundedProjectsPageComponent</title>
<polygon fill="#ffffb3" stroke="black" points="2421.65,-84.8 2226.35,-84.8 2226.35,-48.8 2421.65,-48.8 2421.65,-84.8"/>
<text text-anchor="middle" x="2324" y="-62.6" font-family="Times,serif" font-size="14.00">FundedProjectsPageComponent</text>
</g>
<!-- FundedProjectsPageComponent&#45;&gt;PagesModule -->
<g id="edge3" class="edge">
<title>FundedProjectsPageComponent&#45;&gt;PagesModule</title>
<path fill="none" stroke="black" d="M2324,-85.11C2324,-104.95 2324,-133.8 2324,-133.8 2324,-133.8 1495.34,-133.8 1495.34,-133.8"/>
<polygon fill="black" stroke="black" points="1495.34,-130.3 1485.34,-133.8 1495.34,-137.3 1495.34,-130.3"/>
</g>
<!-- ImageUploadComponent -->
<g id="node4" class="node">
<title>ImageUploadComponent</title>
<polygon fill="#ffffb3" stroke="black" points="2207.53,-84.8 2050.47,-84.8 2050.47,-48.8 2207.53,-48.8 2207.53,-84.8"/>
<text text-anchor="middle" x="2129" y="-62.6" font-family="Times,serif" font-size="14.00">ImageUploadComponent</text>
</g>
<!-- ImageUploadComponent&#45;&gt;PagesModule -->
<g id="edge4" class="edge">
<title>ImageUploadComponent&#45;&gt;PagesModule</title>
<path fill="none" stroke="black" d="M2129,-85.02C2129,-103.63 2129,-129.8 2129,-129.8 2129,-129.8 1495.34,-129.8 1495.34,-129.8"/>
<polygon fill="black" stroke="black" points="1495.34,-126.3 1485.34,-129.8 1495.34,-133.3 1495.34,-126.3"/>
</g>
<!-- LoginComponent -->
<g id="node5" class="node">
<title>LoginComponent</title>
<polygon fill="#ffffb3" stroke="black" points="2032.27,-84.8 1917.73,-84.8 1917.73,-48.8 2032.27,-48.8 2032.27,-84.8"/>
<text text-anchor="middle" x="1975" y="-62.6" font-family="Times,serif" font-size="14.00">LoginComponent</text>
</g>
<!-- LoginComponent&#45;&gt;PagesModule -->
<g id="edge5" class="edge">
<title>LoginComponent&#45;&gt;PagesModule</title>
<path fill="none" stroke="black" d="M1975,-84.82C1975,-102.17 1975,-125.8 1975,-125.8 1975,-125.8 1495.16,-125.8 1495.16,-125.8"/>
<polygon fill="black" stroke="black" points="1495.16,-122.3 1485.16,-125.8 1495.16,-129.3 1495.16,-122.3"/>
</g>
<!-- MyProjectsPageComponent -->
<g id="node6" class="node">
<title>MyProjectsPageComponent</title>
<polygon fill="#ffffb3" stroke="black" points="1899.6,-84.8 1726.4,-84.8 1726.4,-48.8 1899.6,-48.8 1899.6,-84.8"/>
<text text-anchor="middle" x="1813" y="-62.6" font-family="Times,serif" font-size="14.00">MyProjectsPageComponent</text>
</g>
<!-- MyProjectsPageComponent&#45;&gt;PagesModule -->
<g id="edge6" class="edge">
<title>MyProjectsPageComponent&#45;&gt;PagesModule</title>
<path fill="none" stroke="black" d="M1813,-84.81C1813,-100.85 1813,-121.8 1813,-121.8 1813,-121.8 1495.23,-121.8 1495.23,-121.8"/>
<polygon fill="black" stroke="black" points="1495.23,-118.3 1485.23,-121.8 1495.23,-125.3 1495.23,-118.3"/>
</g>
<!-- MyTransactionPageComponent -->
<g id="node7" class="node">
<title>MyTransactionPageComponent</title>
<polygon fill="#ffffb3" stroke="black" points="1708.08,-84.8 1513.92,-84.8 1513.92,-48.8 1708.08,-48.8 1708.08,-84.8"/>
<text text-anchor="middle" x="1611" y="-62.6" font-family="Times,serif" font-size="14.00">MyTransactionPageComponent</text>
</g>
<!-- MyTransactionPageComponent&#45;&gt;PagesModule -->
<g id="edge7" class="edge">
<title>MyTransactionPageComponent&#45;&gt;PagesModule</title>
<path fill="none" stroke="black" d="M1611,-84.92C1611,-99.58 1611,-117.8 1611,-117.8 1611,-117.8 1495.55,-117.8 1495.55,-117.8"/>
<polygon fill="black" stroke="black" points="1495.55,-114.3 1485.55,-117.8 1495.55,-121.3 1495.55,-114.3"/>
</g>
<!-- PagesComponent -->
<g id="node8" class="node">
<title>PagesComponent</title>
<polygon fill="#ffffb3" stroke="black" points="1495.99,-84.8 1382.01,-84.8 1382.01,-48.8 1495.99,-48.8 1495.99,-84.8"/>
<text text-anchor="middle" x="1439" y="-62.6" font-family="Times,serif" font-size="14.00">PagesComponent</text>
</g>
<!-- PagesComponent&#45;&gt;PagesModule -->
<g id="edge8" class="edge">
<title>PagesComponent&#45;&gt;PagesModule</title>
<path fill="none" stroke="black" d="M1439,-84.91C1439,-84.91 1439,-103.79 1439,-103.79"/>
<polygon fill="black" stroke="black" points="1435.5,-103.79 1439,-113.79 1442.5,-103.79 1435.5,-103.79"/>
</g>
<!-- ProductDetailComponent -->
<g id="node9" class="node">
<title>ProductDetailComponent</title>
<polygon fill="#ffffb3" stroke="black" points="1363.59,-84.8 1204.41,-84.8 1204.41,-48.8 1363.59,-48.8 1363.59,-84.8"/>
<text text-anchor="middle" x="1284" y="-62.6" font-family="Times,serif" font-size="14.00">ProductDetailComponent</text>
</g>
<!-- ProductDetailComponent&#45;&gt;PagesModule -->
<g id="edge9" class="edge">
<title>ProductDetailComponent&#45;&gt;PagesModule</title>
<path fill="none" stroke="black" d="M1284,-84.92C1284,-99.58 1284,-117.8 1284,-117.8 1284,-117.8 1382.49,-117.8 1382.49,-117.8"/>
<polygon fill="black" stroke="black" points="1382.49,-121.3 1392.49,-117.8 1382.49,-114.3 1382.49,-121.3"/>
</g>
<!-- ProductListComponent -->
<g id="node10" class="node">
<title>ProductListComponent</title>
<polygon fill="#ffffb3" stroke="black" points="1186.16,-84.8 1039.84,-84.8 1039.84,-48.8 1186.16,-48.8 1186.16,-84.8"/>
<text text-anchor="middle" x="1113" y="-62.6" font-family="Times,serif" font-size="14.00">ProductListComponent</text>
</g>
<!-- ProductListComponent&#45;&gt;PagesModule -->
<g id="edge10" class="edge">
<title>ProductListComponent&#45;&gt;PagesModule</title>
<path fill="none" stroke="black" d="M1113,-84.81C1113,-100.85 1113,-121.8 1113,-121.8 1113,-121.8 1382.64,-121.8 1382.64,-121.8"/>
<polygon fill="black" stroke="black" points="1382.64,-125.3 1392.64,-121.8 1382.64,-118.3 1382.64,-125.3"/>
</g>
<!-- ProjectDetailPageComponent -->
<g id="node11" class="node">
<title>ProjectDetailPageComponent</title>
<polygon fill="#ffffb3" stroke="black" points="1021.41,-84.8 838.59,-84.8 838.59,-48.8 1021.41,-48.8 1021.41,-84.8"/>
<text text-anchor="middle" x="930" y="-62.6" font-family="Times,serif" font-size="14.00">ProjectDetailPageComponent</text>
</g>
<!-- ProjectDetailPageComponent&#45;&gt;PagesModule -->
<g id="edge11" class="edge">
<title>ProjectDetailPageComponent&#45;&gt;PagesModule</title>
<path fill="none" stroke="black" d="M930,-84.82C930,-102.17 930,-125.8 930,-125.8 930,-125.8 1382.48,-125.8 1382.48,-125.8"/>
<polygon fill="black" stroke="black" points="1382.48,-129.3 1392.48,-125.8 1382.48,-122.3 1382.48,-129.3"/>
</g>
<!-- RegisterPageComponent -->
<g id="node12" class="node">
<title>RegisterPageComponent</title>
<polygon fill="#ffffb3" stroke="black" points="820.7,-84.8 665.3,-84.8 665.3,-48.8 820.7,-48.8 820.7,-84.8"/>
<text text-anchor="middle" x="743" y="-62.6" font-family="Times,serif" font-size="14.00">RegisterPageComponent</text>
</g>
<!-- RegisterPageComponent&#45;&gt;PagesModule -->
<g id="edge12" class="edge">
<title>RegisterPageComponent&#45;&gt;PagesModule</title>
<path fill="none" stroke="black" d="M743,-85.02C743,-103.63 743,-129.8 743,-129.8 743,-129.8 1382.79,-129.8 1382.79,-129.8"/>
<polygon fill="black" stroke="black" points="1382.79,-133.3 1392.79,-129.8 1382.79,-126.3 1382.79,-133.3"/>
</g>
<!-- RequestPageComponent -->
<g id="node13" class="node">
<title>RequestPageComponent</title>
<polygon fill="#ffffb3" stroke="black" points="647.65,-84.8 494.35,-84.8 494.35,-48.8 647.65,-48.8 647.65,-84.8"/>
<text text-anchor="middle" x="571" y="-62.6" font-family="Times,serif" font-size="14.00">RequestPageComponent</text>
</g>
<!-- RequestPageComponent&#45;&gt;PagesModule -->
<g id="edge13" class="edge">
<title>RequestPageComponent&#45;&gt;PagesModule</title>
<path fill="none" stroke="black" d="M571,-85.11C571,-104.95 571,-133.8 571,-133.8 571,-133.8 1382.64,-133.8 1382.64,-133.8"/>
<polygon fill="black" stroke="black" points="1382.64,-137.3 1392.64,-133.8 1382.64,-130.3 1382.64,-137.3"/>
</g>
<!-- TransactionListComponent -->
<g id="node14" class="node">
<title>TransactionListComponent</title>
<polygon fill="#ffffb3" stroke="black" points="476.69,-84.8 307.31,-84.8 307.31,-48.8 476.69,-48.8 476.69,-84.8"/>
<text text-anchor="middle" x="392" y="-62.6" font-family="Times,serif" font-size="14.00">TransactionListComponent</text>
</g>
<!-- TransactionListComponent&#45;&gt;PagesModule -->
<g id="edge14" class="edge">
<title>TransactionListComponent&#45;&gt;PagesModule</title>
<path fill="none" stroke="black" d="M392,-85.08C392,-106.12 392,-137.8 392,-137.8 392,-137.8 1382.66,-137.8 1382.66,-137.8"/>
<polygon fill="black" stroke="black" points="1382.66,-141.3 1392.66,-137.8 1382.66,-134.3 1382.66,-141.3"/>
</g>
<!-- PagesRoutingModule -->
<g id="node16" class="node">
<title>PagesRoutingModule</title>
<polygon fill="#8dd3c7" stroke="black" points="282.83,-84.8 279.83,-88.8 258.83,-88.8 255.83,-84.8 145.17,-84.8 145.17,-48.8 282.83,-48.8 282.83,-84.8"/>
<text text-anchor="middle" x="214" y="-62.6" font-family="Times,serif" font-size="14.00">PagesRoutingModule</text>
</g>
<!-- PagesRoutingModule&#45;&gt;PagesModule -->
<g id="edge15" class="edge">
<title>PagesRoutingModule&#45;&gt;PagesModule</title>
<path fill="none" stroke="black" d="M214,-84.96C214,-107.15 214,-141.8 214,-141.8 214,-141.8 1382.85,-141.8 1382.85,-141.8"/>
<polygon fill="black" stroke="black" points="1382.85,-145.3 1392.85,-141.8 1382.84,-138.3 1382.85,-145.3"/>
</g>
<!-- SpinnerModule -->
<g id="node17" class="node">
<title>SpinnerModule</title>
<polygon fill="#8dd3c7" stroke="black" points="127.6,-84.8 124.6,-88.8 103.6,-88.8 100.6,-84.8 24.4,-84.8 24.4,-48.8 127.6,-48.8 127.6,-84.8"/>
<text text-anchor="middle" x="76" y="-62.6" font-family="Times,serif" font-size="14.00">SpinnerModule</text>
</g>
<!-- SpinnerModule&#45;&gt;PagesModule -->
<g id="edge16" class="edge">
<title>SpinnerModule&#45;&gt;PagesModule</title>
<path fill="none" stroke="black" d="M76,-85.12C76,-108.46 76,-145.8 76,-145.8 76,-145.8 1382.87,-145.8 1382.87,-145.8"/>
<polygon fill="black" stroke="black" points="1382.87,-149.3 1392.87,-145.8 1382.87,-142.3 1382.87,-149.3"/>
</g>
<!-- SharedService -->
<g id="node18" class="node">
<title>SharedService</title>
<ellipse fill="#fdb462" stroke="black" cx="2907" cy="-66.8" rx="66.62" ry="18"/>
<text text-anchor="middle" x="2907" y="-62.6" font-family="Times,serif" font-size="14.00">SharedService</text>
</g>
<!-- SharedService&#45;&gt;PagesModule -->
<g id="edge17" class="edge">
<title>SharedService&#45;&gt;PagesModule</title>
<path fill="none" stroke="black" d="M2907,-85.12C2907,-108.46 2907,-145.8 2907,-145.8 2907,-145.8 1495.36,-145.8 1495.36,-145.8"/>
<polygon fill="black" stroke="black" points="1495.36,-142.3 1485.36,-145.8 1495.36,-149.3 1495.36,-142.3"/>
</g>
</g>
</svg>
