<?xml version="1.0" encoding="UTF-8" standalone="no"?>
<!DOCTYPE svg PUBLIC "-//W3C//DTD SVG 1.1//EN"
 "http://www.w3.org/Graphics/SVG/1.1/DTD/svg11.dtd">
<!-- Generated by graphviz version 5.0.0 (20220707.1540)
 -->
<!-- Title: dependencies Pages: 1 -->
<svg width="1311pt" height="247pt"
 viewBox="0.00 0.00 1311.00 246.80" xmlns="http://www.w3.org/2000/svg" xmlns:xlink="http://www.w3.org/1999/xlink">
<g id="graph0" class="graph" transform="scale(1 1) rotate(0) translate(4 242.8)">
<title>dependencies</title>
<polygon fill="white" stroke="transparent" points="-4,4 -4,-242.8 1307,-242.8 1307,4 -4,4"/>
<text text-anchor="middle" x="651.5" y="-8.2" font-family="sans-serif" font-size="14.00">dependencies</text>
<g id="clust1" class="cluster">
<title>cluster_AppModule</title>
<polygon fill="none" stroke="black" stroke-dasharray="1,5" points="8,-32.8 8,-230.8 1295,-230.8 1295,-32.8 8,-32.8"/>
</g>
<g id="clust2" class="cluster">
<title>cluster_AppModule_declarations</title>
<polygon fill="none" stroke="black" points="701,-40.8 701,-92.8 1287,-92.8 1287,-40.8 701,-40.8"/>
</g>
<g id="clust10" class="cluster">
<title>cluster_AppModule_providers</title>
<polygon fill="none" stroke="black" points="290,-40.8 290,-92.8 693,-92.8 693,-40.8 290,-40.8"/>
</g>
<g id="clust7" class="cluster">
<title>cluster_AppModule_imports</title>
<polygon fill="none" stroke="black" points="16,-40.8 16,-92.8 282,-92.8 282,-40.8 16,-40.8"/>
</g>
<g id="clust9" class="cluster">
<title>cluster_AppModule_bootstrap</title>
<polygon fill="none" stroke="black" points="627,-170.8 627,-222.8 751,-222.8 751,-170.8 627,-170.8"/>
</g>
<!-- AppComponent -->
<g id="node1" class="node">
<title>AppComponent</title>
<polygon fill="#ffffb3" stroke="black" points="1278.94,-84.8 1173.06,-84.8 1173.06,-48.8 1278.94,-48.8 1278.94,-84.8"/>
<text text-anchor="middle" x="1226" y="-62.6" font-family="Times,serif" font-size="14.00">AppComponent</text>
</g>
<!-- AppModule -->
<g id="node5" class="node">
<title>AppModule</title>
<polygon fill="#8dd3c7" stroke="black" points="730.66,-149.8 727.66,-153.8 706.66,-153.8 703.66,-149.8 647.34,-149.8 647.34,-113.8 730.66,-113.8 730.66,-149.8"/>
<text text-anchor="middle" x="689" y="-127.6" font-family="Times,serif" font-size="14.00">AppModule</text>
</g>
<!-- AppComponent&#45;&gt;AppModule -->
<g id="edge1" class="edge">
<title>AppComponent&#45;&gt;AppModule</title>
<path fill="none" stroke="black" d="M1226,-85.09C1226,-107.01 1226,-140.8 1226,-140.8 1226,-140.8 740.69,-140.8 740.69,-140.8"/>
<polygon fill="black" stroke="black" points="740.69,-137.3 730.69,-140.8 740.69,-144.3 740.69,-137.3"/>
</g>
<!-- HeaderComponent -->
<g id="node2" class="node">
<title>HeaderComponent</title>
<polygon fill="#ffffb3" stroke="black" points="1154.75,-84.8 1033.25,-84.8 1033.25,-48.8 1154.75,-48.8 1154.75,-84.8"/>
<text text-anchor="middle" x="1094" y="-62.6" font-family="Times,serif" font-size="14.00">HeaderComponent</text>
</g>
<!-- HeaderComponent&#45;&gt;AppModule -->
<g id="edge2" class="edge">
<title>HeaderComponent&#45;&gt;AppModule</title>
<path fill="none" stroke="black" d="M1094,-84.91C1094,-104.14 1094,-131.8 1094,-131.8 1094,-131.8 740.82,-131.8 740.82,-131.8"/>
<polygon fill="black" stroke="black" points="740.82,-128.3 730.82,-131.8 740.82,-135.3 740.82,-128.3"/>
</g>
<!-- NavHeaderComponent -->
<g id="node3" class="node">
<title>NavHeaderComponent</title>
<polygon fill="#ffffb3" stroke="black" points="1015.57,-84.8 870.43,-84.8 870.43,-48.8 1015.57,-48.8 1015.57,-84.8"/>
<text text-anchor="middle" x="943" y="-62.6" font-family="Times,serif" font-size="14.00">NavHeaderComponent</text>
</g>
<!-- NavHeaderComponent&#45;&gt;AppModule -->
<g id="edge3" class="edge">
<title>NavHeaderComponent&#45;&gt;AppModule</title>
<path fill="none" stroke="black" d="M943,-84.83C943,-101.2 943,-122.8 943,-122.8 943,-122.8 740.94,-122.8 740.94,-122.8"/>
<polygon fill="black" stroke="black" points="740.94,-119.3 730.94,-122.8 740.94,-126.3 740.94,-119.3"/>
</g>
<!-- NavigationComponent -->
<g id="node4" class="node">
<title>NavigationComponent</title>
<polygon fill="#ffffb3" stroke="black" points="852.54,-84.8 709.46,-84.8 709.46,-48.8 852.54,-48.8 852.54,-84.8"/>
<text text-anchor="middle" x="781" y="-62.6" font-family="Times,serif" font-size="14.00">NavigationComponent</text>
</g>
<!-- NavigationComponent&#45;&gt;AppModule -->
<g id="edge4" class="edge">
<title>NavigationComponent&#45;&gt;AppModule</title>
<path fill="none" stroke="black" d="M720.03,-84.91C720.03,-84.91 720.03,-103.79 720.03,-103.79"/>
<polygon fill="black" stroke="black" points="716.53,-103.79 720.03,-113.79 723.53,-103.79 716.53,-103.79"/>
</g>
<!-- AppComponent  -->
<g id="node8" class="node">
<title>AppComponent </title>
<polygon fill="#80b1d3" stroke="black" points="743.44,-214.8 634.56,-214.8 634.56,-178.8 743.44,-178.8 743.44,-214.8"/>
<text text-anchor="middle" x="689" y="-192.6" font-family="Times,serif" font-size="14.00">AppComponent </text>
</g>
<!-- AppModule&#45;&gt;AppComponent  -->
<g id="edge7" class="edge">
<title>AppModule&#45;&gt;AppComponent </title>
<path fill="none" stroke="black" stroke-dasharray="1,5" d="M689,-149.91C689,-149.91 689,-168.79 689,-168.79"/>
<polygon fill="black" stroke="black" points="685.5,-168.79 689,-178.79 692.5,-168.79 685.5,-168.79"/>
</g>
<!-- AppRoutingModule -->
<g id="node6" class="node">
<title>AppRoutingModule</title>
<polygon fill="#8dd3c7" stroke="black" points="274.28,-84.8 271.28,-88.8 250.28,-88.8 247.28,-84.8 145.72,-84.8 145.72,-48.8 274.28,-48.8 274.28,-84.8"/>
<text text-anchor="middle" x="210" y="-62.6" font-family="Times,serif" font-size="14.00">AppRoutingModule</text>
</g>
<!-- AppRoutingModule&#45;&gt;AppModule -->
<g id="edge5" class="edge">
<title>AppRoutingModule&#45;&gt;AppModule</title>
<path fill="none" stroke="black" d="M210,-84.91C210,-104.14 210,-131.8 210,-131.8 210,-131.8 637.33,-131.8 637.33,-131.8"/>
<polygon fill="black" stroke="black" points="637.33,-135.3 647.33,-131.8 637.33,-128.3 637.33,-135.3"/>
</g>
<!-- SpinnerModule -->
<g id="node7" class="node">
<title>SpinnerModule</title>
<polygon fill="#8dd3c7" stroke="black" points="127.6,-84.8 124.6,-88.8 103.6,-88.8 100.6,-84.8 24.4,-84.8 24.4,-48.8 127.6,-48.8 127.6,-84.8"/>
<text text-anchor="middle" x="76" y="-62.6" font-family="Times,serif" font-size="14.00">SpinnerModule</text>
</g>
<!-- SpinnerModule&#45;&gt;AppModule -->
<g id="edge6" class="edge">
<title>SpinnerModule&#45;&gt;AppModule</title>
<path fill="none" stroke="black" d="M76,-85.09C76,-107.01 76,-140.8 76,-140.8 76,-140.8 636.87,-140.8 636.87,-140.8"/>
<polygon fill="black" stroke="black" points="636.87,-144.3 646.87,-140.8 636.87,-137.3 636.87,-144.3"/>
</g>
<!-- AppHttpInterceptor -->
<g id="node9" class="node">
<title>AppHttpInterceptor</title>
<ellipse fill="#fdb462" stroke="black" cx="598" cy="-66.8" rx="87.39" ry="18"/>
<text text-anchor="middle" x="598" y="-62.6" font-family="Times,serif" font-size="14.00">AppHttpInterceptor</text>
</g>
<!-- AppHttpInterceptor&#45;&gt;AppModule -->
<g id="edge8" class="edge">
<title>AppHttpInterceptor&#45;&gt;AppModule</title>
<path fill="none" stroke="black" d="M666.18,-78.12C666.18,-78.12 666.18,-103.74 666.18,-103.74"/>
<polygon fill="black" stroke="black" points="662.68,-103.74 666.18,-113.74 669.68,-103.74 662.68,-103.74"/>
</g>
<!-- AuthenticationService -->
<g id="node10" class="node">
<title>AuthenticationService</title>
<ellipse fill="#fdb462" stroke="black" cx="395" cy="-66.8" rx="97.27" ry="18"/>
<text text-anchor="middle" x="395" y="-62.6" font-family="Times,serif" font-size="14.00">AuthenticationService</text>
</g>
<!-- AuthenticationService&#45;&gt;AppModule -->
<g id="edge9" class="edge">
<title>AuthenticationService&#45;&gt;AppModule</title>
<path fill="none" stroke="black" d="M395,-84.83C395,-101.2 395,-122.8 395,-122.8 395,-122.8 637.19,-122.8 637.19,-122.8"/>
<polygon fill="black" stroke="black" points="637.19,-126.3 647.19,-122.8 637.19,-119.3 637.19,-126.3"/>
</g>
</g>
</svg>
